<?xml version="1.0" encoding="UTF-8"?>
<svg width="752pt" height="752pt" version="1.1" viewBox="0 0 752 752" xmlns="http://www.w3.org/2000/svg">
 <path d="m607.27 494.02c-0.023438-0.25391-0.082032-0.49219-0.16016-0.72656-0.058593-0.14844-0.10547-0.28906-0.17578-0.42578-0.125-0.23047-0.29688-0.42188-0.48047-0.61719-0.078125-0.082031-0.11719-0.1875-0.20312-0.26172-0.035156-0.03125-0.078125-0.03125-0.11328-0.058593-0.21484-0.16016-0.46875-0.26563-0.72656-0.36719-0.13672-0.054688-0.25391-0.12891-0.39062-0.16016-0.023438-0.007813-0.046876-0.023438-0.070313-0.03125l-59.648-11.934v-42.125c0-0.09375-0.054688-0.16406-0.058594-0.26172-0.023438-0.25391-0.082032-0.49219-0.16016-0.72656-0.058594-0.14844-0.10547-0.28906-0.17578-0.42578-0.125-0.23047-0.29688-0.42188-0.48047-0.61719-0.078126-0.082031-0.11719-0.1875-0.20313-0.26172-0.035156-0.03125-0.078124-0.03125-0.11328-0.054687-0.21484-0.16406-0.46875-0.26562-0.72656-0.37109-0.13672-0.054688-0.25391-0.125-0.39062-0.16016-0.023438-0.007813-0.046875-0.023438-0.070313-0.03125l-51.184-10.234 0.003906-37.039c0-0.88281-0.39844-1.7305-1.082-2.2891-0.37891-0.3125-0.83594-0.49219-1.3086-0.58594l0.007812-0.03125-54.297-10.863c14.91-21.812 17.023-56.77 15.664-72.316-3.2305-36.828-33.363-65.281-31.641-90.508 0.55078-8.0078-0.94141-7.8867-5.3867 0-4.4531 7.8906-5.6055 23.867-2.5742 35.52 3.0352 11.648 3.0898 24.82 0.12891 29.273-2.9648 4.4453-17.258 7.832-35.121-34.992-10.371-24.863-13.77-50.805-6.6953-70.688 7.457-20.957 1.9102-19.996-6.3281 0.11328-8.293 20.238-18.113 47.27-8.5547 80.508 17.008 59.125-29.961 55.066-24.734 23.352 1.7539-10.656 1.9102-24.246-3.8906-34.914-5.5352-10.176-11.418-15.535-6.3711-0.14062 2.9258 8.9141-3.0742 30.41-10.523 49.07-15.547 38.91-5.1875 68.059 8.5234 85.613l-54.922 10.98 0.007813 0.03125c-0.47266 0.09375-0.92188 0.27344-1.3008 0.58594-0.6875 0.5625-1.082 1.4023-1.082 2.2891v37.051l-51.195 10.234c-0.023437 0.007813-0.042968 0.023437-0.070312 0.03125-0.12891 0.03125-0.25 0.11328-0.37109 0.15234-0.26562 0.10156-0.52734 0.20703-0.74609 0.37109-0.035156 0.023438-0.078124 0.03125-0.10547 0.054688-0.082032 0.070312-0.125 0.17578-0.20312 0.25391-0.18359 0.1875-0.35547 0.38672-0.48438 0.61719-0.078125 0.13672-0.125 0.28516-0.18359 0.43359-0.082031 0.23828-0.13672 0.46875-0.16016 0.71484-0.007813 0.09375-0.058594 0.17188-0.058594 0.26562v42.125l-59.641 11.938c-0.023437 0.007813-0.042969 0.023438-0.070313 0.03125-0.12891 0.03125-0.25 0.11328-0.37109 0.15234-0.26562 0.10156-0.52734 0.20703-0.74609 0.37109-0.035156 0.023437-0.078125 0.03125-0.10547 0.054687-0.082031 0.070313-0.125 0.17188-0.20312 0.25391-0.18359 0.1875-0.35547 0.38672-0.48438 0.61719-0.078125 0.13672-0.125 0.28516-0.18359 0.43359-0.082031 0.23047-0.13672 0.46875-0.16016 0.71484 0 0.097657-0.054687 0.18359-0.054687 0.26953v55.242c0 1.4102 0.99609 2.6211 2.3789 2.9023l228.37 45.684c0.19531 0.042969 0.38672-0.011719 0.58203-0.011719s0.38672 0.054688 0.58203 0.011719l228.37-45.684c1.3867-0.27734 2.3789-1.4922 2.3789-2.9023v-55.242c0-0.085938-0.050781-0.16406-0.058593-0.25781zm-285.29-115.62c1.6055 1.7031 3.207 3.2695 4.8086 4.6641l-7.7422 1.5508c-0.69141 0.13672-1.1914 0.74609-1.1914 1.4492s0.49609 1.3125 1.1914 1.4492l22.094 4.418c0.39844 0.125 0.79297 0.22656 1.1562 0.30078 4.4336 0.88281 10.23 2.2656 16.676 3.2695l16.742 3.3438c0.1875 0.042968 0.38672 0.042968 0.58203 0l56.664-11.332c0.69141-0.13672 1.1914-0.74609 1.1914-1.4492s-0.49609-1.3125-1.1914-1.4492l-6.7656-1.3555c1.7031-1.4219 3.3086-2.9844 4.8008-4.6641l42.699 8.5352-97.699 19.539-97.68-19.535zm163.84 12.34v39.078l-106.86 21.375v-39.074zm-219.64 0.007813 106.86 21.371v39.078l-106.86-21.379zm-5.918 39.473v2.0234c0 1.4102 0.99609 2.6211 2.3789 2.9023l112.78 22.555c0.19531 0.042969 0.38672-0.011718 0.58203-0.011718 0.19531 0 0.38672 0.054687 0.58203 0.011718l112.77-22.559c1.3867-0.27734 2.3789-1.4922 2.3789-2.9023v-2.0234l35.52 7.1055-151.25 30.25-151.25-30.25zm279.12 10.707v45.273l-160.43 32.09v-45.273zm-326.77 0.007813 160.43 32.086v45.273l-160.43-32.09zm160.43 150.67-222.45-44.504v-49.203l222.45 44.5zm2.957-54.66-213.28-42.66 43.973-8.7969v3.1484c0 1.4102 0.99609 2.6211 2.3789 2.9023l166.35 33.27c0.19531 0.042969 0.38672-0.011719 0.58203-0.011719 0.19531 0 0.38672 0.054688 0.58203 0.011719l166.34-33.27c1.3867-0.27734 2.3789-1.4922 2.3789-2.9023v-3.1484l43.984 8.7969zm225.41 10.156-222.45 44.504v-49.211l222.45-44.5z"/>
</svg>
